<mxfile host="Electron" agent="Mozilla/5.0 (Windows NT 10.0; Win64; x64) AppleWebKit/537.36 (KHTML, like Gecko) draw.io/24.5.3 Chrome/124.0.6367.207 Electron/30.0.6 Safari/537.36" modified="2024-09-05T14:50:39.121Z" version="24.5.3" etag="hD6OmhGOu4FwrQGpFwYN" type="device">
  <diagram name="Halaman-1" id="UibU2z7ZE55menzz7SqL">
    <mxGraphModel dx="794" dy="519" grid="1" gridSize="10" guides="1" tooltips="1" connect="1" arrows="1" fold="1" page="1" pageScale="1" pageWidth="827" pageHeight="1169" math="0" shadow="0">
      <root>
        <mxCell id="0" />
        <mxCell id="1" parent="0" />
        <mxCell id="75GzWHfhSZZU7S7KuI_4-33" value="menerima konfirmasi pembelian" style="rounded=0;whiteSpace=wrap;html=1;opacity=80;" parent="1" vertex="1">
          <mxGeometry x="349" y="1071" width="130" height="50" as="geometry" />
        </mxCell>
        <mxCell id="75GzWHfhSZZU7S7KuI_4-38" value="User" style="swimlane;fillColor=#FFFFFF;" parent="1" vertex="1">
          <mxGeometry x="170" y="390" width="260" height="620" as="geometry" />
        </mxCell>
        <mxCell id="75GzWHfhSZZU7S7KuI_4-43" value="" style="edgeStyle=orthogonalEdgeStyle;rounded=0;orthogonalLoop=1;jettySize=auto;html=1;" parent="75GzWHfhSZZU7S7KuI_4-38" source="75GzWHfhSZZU7S7KuI_4-41" target="75GzWHfhSZZU7S7KuI_4-42" edge="1">
          <mxGeometry relative="1" as="geometry" />
        </mxCell>
        <mxCell id="75GzWHfhSZZU7S7KuI_4-41" value="" style="ellipse;whiteSpace=wrap;html=1;aspect=fixed;fillColor=#000000;" parent="75GzWHfhSZZU7S7KuI_4-38" vertex="1">
          <mxGeometry x="75" y="40" width="50" height="50" as="geometry" />
        </mxCell>
        <mxCell id="75GzWHfhSZZU7S7KuI_4-45" value="" style="edgeStyle=orthogonalEdgeStyle;rounded=0;orthogonalLoop=1;jettySize=auto;html=1;" parent="75GzWHfhSZZU7S7KuI_4-38" source="75GzWHfhSZZU7S7KuI_4-42" target="75GzWHfhSZZU7S7KuI_4-44" edge="1">
          <mxGeometry relative="1" as="geometry" />
        </mxCell>
        <mxCell id="75GzWHfhSZZU7S7KuI_4-42" value="Login" style="rounded=1;whiteSpace=wrap;html=1;fillColor=#000000;fontColor=#FFFFFF;fontStyle=1" parent="75GzWHfhSZZU7S7KuI_4-38" vertex="1">
          <mxGeometry x="55" y="130" width="90" height="40" as="geometry" />
        </mxCell>
        <mxCell id="75GzWHfhSZZU7S7KuI_4-44" value="" style="rhombus;whiteSpace=wrap;html=1;fillColor=#000000;" parent="75GzWHfhSZZU7S7KuI_4-38" vertex="1">
          <mxGeometry x="65" y="205" width="70" height="70" as="geometry" />
        </mxCell>
        <mxCell id="75GzWHfhSZZU7S7KuI_4-46" value="True" style="text;html=1;align=center;verticalAlign=middle;resizable=0;points=[];autosize=1;strokeColor=none;fillColor=none;fontStyle=1" parent="75GzWHfhSZZU7S7KuI_4-38" vertex="1">
          <mxGeometry x="145" y="205" width="50" height="30" as="geometry" />
        </mxCell>
        <mxCell id="75GzWHfhSZZU7S7KuI_4-51" value="user disuruh memasukan username yang benar" style="rounded=1;whiteSpace=wrap;html=1;fillColor=#000000;fontColor=#FFFFFF;fontStyle=1" parent="75GzWHfhSZZU7S7KuI_4-38" vertex="1">
          <mxGeometry x="42.5" y="330" width="115" height="60" as="geometry" />
        </mxCell>
        <mxCell id="75GzWHfhSZZU7S7KuI_4-62" style="edgeStyle=orthogonalEdgeStyle;rounded=0;orthogonalLoop=1;jettySize=auto;html=1;exitX=0.5;exitY=1;exitDx=0;exitDy=0;entryX=0.5;entryY=0;entryDx=0;entryDy=0;" parent="75GzWHfhSZZU7S7KuI_4-38" source="75GzWHfhSZZU7S7KuI_4-59" target="75GzWHfhSZZU7S7KuI_4-61" edge="1">
          <mxGeometry relative="1" as="geometry" />
        </mxCell>
        <mxCell id="75GzWHfhSZZU7S7KuI_4-59" value="pembayaran&amp;nbsp;&lt;div&gt;selesai&lt;/div&gt;" style="rounded=1;whiteSpace=wrap;html=1;fillColor=#000000;fontColor=#FFFFFF;fontStyle=1" parent="75GzWHfhSZZU7S7KuI_4-38" vertex="1">
          <mxGeometry x="55" y="470" width="90" height="40" as="geometry" />
        </mxCell>
        <mxCell id="75GzWHfhSZZU7S7KuI_4-61" value="" style="ellipse;whiteSpace=wrap;html=1;aspect=fixed;fillColor=#000000;" parent="75GzWHfhSZZU7S7KuI_4-38" vertex="1">
          <mxGeometry x="75" y="540" width="50" height="50" as="geometry" />
        </mxCell>
        <mxCell id="75GzWHfhSZZU7S7KuI_4-40" value="Sistem" style="swimlane;" parent="1" vertex="1">
          <mxGeometry x="430" y="390" width="230" height="620" as="geometry" />
        </mxCell>
        <mxCell id="75GzWHfhSZZU7S7KuI_4-56" value="" style="edgeStyle=orthogonalEdgeStyle;rounded=0;orthogonalLoop=1;jettySize=auto;html=1;" parent="75GzWHfhSZZU7S7KuI_4-40" source="75GzWHfhSZZU7S7KuI_4-48" target="75GzWHfhSZZU7S7KuI_4-55" edge="1">
          <mxGeometry relative="1" as="geometry" />
        </mxCell>
        <mxCell id="75GzWHfhSZZU7S7KuI_4-48" value="Home page" style="rounded=1;whiteSpace=wrap;html=1;fillColor=#000000;fontColor=#FFFFFF;fontStyle=1" parent="75GzWHfhSZZU7S7KuI_4-40" vertex="1">
          <mxGeometry x="55" y="220" width="90" height="40" as="geometry" />
        </mxCell>
        <mxCell id="75GzWHfhSZZU7S7KuI_4-58" value="" style="edgeStyle=orthogonalEdgeStyle;rounded=0;orthogonalLoop=1;jettySize=auto;html=1;" parent="75GzWHfhSZZU7S7KuI_4-40" source="75GzWHfhSZZU7S7KuI_4-55" target="75GzWHfhSZZU7S7KuI_4-57" edge="1">
          <mxGeometry relative="1" as="geometry" />
        </mxCell>
        <mxCell id="75GzWHfhSZZU7S7KuI_4-55" value="User memilih produk yg ingin dibeli" style="rounded=1;whiteSpace=wrap;html=1;fillColor=#000000;fontColor=#FFFFFF;fontStyle=1" parent="75GzWHfhSZZU7S7KuI_4-40" vertex="1">
          <mxGeometry x="55" y="340" width="90" height="50" as="geometry" />
        </mxCell>
        <mxCell id="75GzWHfhSZZU7S7KuI_4-57" value="pilih metode&amp;nbsp;&lt;div&gt;pembayaran&lt;/div&gt;" style="rounded=1;whiteSpace=wrap;html=1;fillColor=#000000;fontColor=#FFFFFF;fontStyle=1" parent="75GzWHfhSZZU7S7KuI_4-40" vertex="1">
          <mxGeometry x="55" y="470" width="90" height="40" as="geometry" />
        </mxCell>
        <mxCell id="75GzWHfhSZZU7S7KuI_4-50" style="edgeStyle=orthogonalEdgeStyle;rounded=0;orthogonalLoop=1;jettySize=auto;html=1;exitX=1;exitY=0.5;exitDx=0;exitDy=0;" parent="1" source="75GzWHfhSZZU7S7KuI_4-44" target="75GzWHfhSZZU7S7KuI_4-48" edge="1">
          <mxGeometry relative="1" as="geometry">
            <Array as="points">
              <mxPoint x="415" y="630" />
              <mxPoint x="415" y="630" />
            </Array>
          </mxGeometry>
        </mxCell>
        <mxCell id="75GzWHfhSZZU7S7KuI_4-52" value="" style="edgeStyle=orthogonalEdgeStyle;rounded=0;orthogonalLoop=1;jettySize=auto;html=1;" parent="1" source="75GzWHfhSZZU7S7KuI_4-48" target="75GzWHfhSZZU7S7KuI_4-51" edge="1">
          <mxGeometry relative="1" as="geometry" />
        </mxCell>
        <mxCell id="75GzWHfhSZZU7S7KuI_4-54" value="False" style="text;html=1;align=center;verticalAlign=middle;resizable=0;points=[];autosize=1;strokeColor=none;fillColor=none;" parent="1" vertex="1">
          <mxGeometry x="265" y="668" width="50" height="30" as="geometry" />
        </mxCell>
        <mxCell id="75GzWHfhSZZU7S7KuI_4-60" value="" style="edgeStyle=orthogonalEdgeStyle;rounded=0;orthogonalLoop=1;jettySize=auto;html=1;" parent="1" source="75GzWHfhSZZU7S7KuI_4-57" target="75GzWHfhSZZU7S7KuI_4-59" edge="1">
          <mxGeometry relative="1" as="geometry" />
        </mxCell>
      </root>
    </mxGraphModel>
  </diagram>
</mxfile>
